<svg xmlns="http://www.w3.org/2000/svg" version="1.1" xmlns:xlink="http://www.w3.org/1999/xlink" width="1000" height="1000"><metadata><rdf:RDF xmlns:rdf="http://www.w3.org/1999/02/22-rdf-syntax-ns#" xmlns:dc="http://purl.org/dc/elements/1.1/"><rdf:Description><dc:creator>RealFaviconGenerator</dc:creator><dc:source>https://realfavicongenerator.net</dc:source></rdf:Description></rdf:RDF></metadata><g clip-path="url(#SvgjsClipPath1153)"><rect width="1000" height="1000" fill="#ffffff"></rect><g transform="matrix(1.4227353102579217,0,0,1.4227353102579217,171.31257494766365,150)"><svg xmlns="http://www.w3.org/2000/svg" version="1.1" xmlns:xlink="http://www.w3.org/1999/xlink" id="Layer_1" x="0px" y="0px" style="enable-background:new 0 0 1280 800;" xml:space="preserve" viewBox="408.98 153.99 462.05 492.01" width="462.05" height="492.01"><style type="text/css">
	.st0{fill:#4D4D4D;}
	.st1{fill:#3DA6FF;}
	.st2{fill:#39B54A;}
	.st3{fill:#FF0000;}
</style><g>
	<path class="st0" d="M666.37,387.37c12.47-29.87,39.54-49.9,78.67-49.9c38.78,0,65.92,19.93,78.46,49.69   c6.42-3.38,13.74-5.28,21.51-5.28c2.94,0,5.84,0.28,8.63,0.83c-15.92-44.55-54.63-73.49-108.61-73.49   c-54.18,0-92.76,28.9-108.64,73.38c2.62-0.48,5.32-0.73,8.05-0.73C652.39,381.87,659.85,383.88,666.37,387.37z M823.5,470.04   c-12.54,29.77-39.68,49.69-78.46,49.69c-39.13,0-66.2-20.03-78.67-49.9c-6.53,3.49-13.99,5.49-21.93,5.49   c-2.73,0-5.42-0.24-8.05-0.73c15.89,44.48,54.46,73.38,108.64,73.38c53.98,0,92.69-28.94,108.61-73.49   c-2.8,0.55-5.7,0.83-8.63,0.83C837.24,475.32,829.92,473.42,823.5,470.04z"></path>
	<g>
		<path class="st0" d="M795.27,301.52c-13.46-28.56-33.11-60.82-57.02-82.15c-23.56-21.02-41.8-20.88-64.88,0.37    c-9.64,8.88-17.91,19.06-24.92,30.07c-53.01,83.2-89.02,172.14-90.99,272.38c-0.34,17.39,0.45,34.78,4.85,51.76    c9.14,35.26,30.04,48,65.94,40.85c23.79-4.74,45.58-14.91,68.49-24.92c-16.93,25.58-63.04,52.98-91.44,55.68    c-31.6,3.01-55.46-9.38-72.71-35.35c-17.96-27.05-24.01-57.87-25.75-89.41c-3.46-62.64,6.56-123.35,31.33-181.07    c20.44-47.63,44.98-93.03,80.42-131.62c11.17-12.16,23.56-22.9,37.95-31.12c36.05-20.61,72.08-14.48,98.7,17.27    c23.42,27.94,33.92,61.27,38.83,96.74L795.27,301.52z"></path>
		<path class="st1" d="M534.55,635.01c-36.43,15.39-72.53,3.28-95.06-31c-18.01-27.41-25.59-58.37-28.56-90.27    c-10.71-115.01,23.16-217.48,90.04-309.98c13.97-19.32,31.61-35.4,54.44-44.31c25.5-9.95,49.22-6.11,71.15,10.06    c5.16,3.8,6.8,6.46,6.8,6.46c-9.89,4.9-24.58,19.77-24.58,19.77c-21.23-11.97-37.39,1.39-46.17,9.33    c-11.97,10.82-21.1,24.04-28.68,38.06c-47.22,87.27-76.61,179.17-71.22,279.87c0.96,17.92,3.67,35.58,9.95,52.45    c6.71,18.04,16.58,33.94,44.15,36.36C516.79,611.81,525.29,627.78,534.55,635.01z"></path>
	</g>
	<circle class="st2" cx="845.01" cy="428.6" r="26.02"></circle>
	<circle class="st3" cx="644.43" cy="428.6" r="26.02"></circle>
</g></svg></g></g><defs><clipPath id="SvgjsClipPath1153"><rect width="1000" height="1000" x="0" y="0" rx="350" ry="350"></rect></clipPath></defs></svg>